<svg class="icon" viewBox="0 0 1024 1024" xmlns="http://www.w3.org/2000/svg" width="200" height="200"><defs><style/></defs><path d="M684.617 585.655v-137.29h113.957v-68.607c0-9.29 3.437-17.335 10.313-24.137a33.573 33.573 0 0 1 24.43-10.24c9.362 0 17.554 3.437 24.43 10.24L996.57 492.91c6.876 6.802 10.314 14.775 10.314 24.137a32.768 32.768 0 0 1-10.24 24.137L857.673 678.4a33.573 33.573 0 0 1-24.356 10.24 33.573 33.573 0 0 1-24.43-10.24 32.768 32.768 0 0 1-10.24-24.137v-68.608h-114.03zm-336.457 0H243.054v68.608A32.768 32.768 0 0 1 232.74 678.4a33.573 33.573 0 0 1-24.43 10.24 33.573 33.573 0 0 1-24.43-10.24L45.056 541.11a32.768 32.768 0 0 1-10.313-24.136c0-9.29 3.438-17.262 10.24-24.137L183.954 355.62a33.573 33.573 0 0 1 24.357-10.24c9.435 0 17.554 3.437 24.43 10.24 6.875 6.802 10.24 14.848 10.24 24.137v68.608H348.16v137.289zM394.971 137.143h74.899q14.628 0 14.628 14.628v734.574q0 14.629-14.628 14.629H394.97q-14.628 0-14.628-14.629V151.771q0-14.628 14.628-14.628zM563.2 137.143h74.898q14.629 0 14.629 14.628v734.574q0 14.629-14.629 14.629H563.2q-14.629 0-14.629-14.629V151.771q0-14.628 14.629-14.628z" fill="#1296db"/></svg>